<?xml version="1.0" encoding="utf-8"?>
<!-- Generator: Adobe Illustrator 23.0.1, SVG Export Plug-In . SVG Version: 6.00 Build 0)  -->
<svg version="1.1" id="Capa_1" xmlns="http://www.w3.org/2000/svg" xmlns:xlink="http://www.w3.org/1999/xlink" x="0px" y="0px"
	 viewBox="0 0 19 18" style="enable-background:new 0 0 19 18;" xml:space="preserve">
<style type="text/css">
	.st0{enable-background:new    ;}
	.st1{fill:#FFFFFF;}
</style>
<title></title>
<desc>Created with Sketch.</desc>
<g id="symbols">
	<g transform="translate(-25.000000, -90.000000)">
		<g id="Categorías">
			<g class="st0">
				<path class="st1" d="M41.5,93.4l1.8,3.5v10.7H32.8v-0.3c-0.3,0.1-0.6,0.2-0.9,0.3c-0.3,0.1-0.6,0.1-1,0.1c-0.7,0-1.4-0.1-2-0.4
					s-1.2-0.6-1.6-1.1s-0.8-1-1.1-1.6s-0.4-1.3-0.4-2c0-0.6,0.1-1.1,0.3-1.6c0.2-0.5,0.4-1,0.7-1.4s0.7-0.8,1.1-1.1
					c0.4-0.3,0.9-0.6,1.4-0.7c0-0.4-0.1-0.7-0.3-1c-0.2-0.3-0.4-0.4-0.7-0.5c-0.2-0.1-0.4-0.2-0.5-0.5s-0.1-0.4,0-0.7
					c0.1-0.2,0.2-0.4,0.5-0.5c0.2-0.1,0.4-0.1,0.7,0c0.3,0.1,0.5,0.2,0.8,0.4s0.4,0.4,0.6,0.6c0.1-0.2,0.3-0.3,0.4-0.4
					s0.3-0.2,0.5-0.3c0.2-0.1,0.4-0.1,0.6-0.2s0.4-0.1,0.6-0.1c0.1,0,0.3,0,0.4,0c0.1,0,0.3,0.1,0.4,0.1c0,0,0.1,0,0.1,0
					c0,0,0,0.1,0.1,0.1c0,0,0,0.1,0,0.1s0,0.1,0,0.1c-0.1,0.3-0.3,0.6-0.6,0.8s-0.5,0.4-0.8,0.6c-0.2,0.1-0.4,0.1-0.6,0.2
					s-0.4,0.1-0.6,0.1c0,0.1,0.1,0.2,0.1,0.4s0,0.3,0.1,0.4c0.3,0,0.6,0,0.9,0.1c0.3,0.1,0.6,0.1,0.9,0.3v-0.7l1.7-3.5v-1.9
					c0,0,0-0.2,0-0.4s0.1-0.4,0.3-0.6c0.1-0.1,0.3-0.2,0.4-0.3c0.2-0.1,0.3-0.1,0.5-0.1c0.1,0,0.4,0,0.9,0c0.5,0,1,0,1.5,0
					c0.5,0,1,0,1.4,0h0.6c0,0,0.2,0,0.3,0.1c0.2,0,0.4,0.1,0.6,0.3c0.1,0.1,0.2,0.2,0.3,0.4c0.1,0.2,0.1,0.4,0.1,0.6V93.4z
					 M30.9,105.8c0.3,0,0.7,0,1-0.1s0.6-0.2,0.9-0.4v-5.7c-0.3-0.2-0.6-0.3-0.9-0.4s-0.6-0.1-1-0.1c-0.9,0-1.7,0.3-2.4,1
					c-0.7,0.7-1,1.5-1,2.4s0.3,1.7,1,2.4C29.2,105.5,30,105.8,30.9,105.8z M34.5,97.3v8.5h1.8v-8.5l-0.9-1.8L34.5,97.3z M39.7,91.8
					c-0.4,0-1,0-1.7,0c-0.7,0-1.3,0-1.8,0v0.9h3.4V91.8z M40.9,96.2L40,94.4h-3.2l0.9,1.7H40.9z M41.5,105.8V98H38v7.8H41.5z"/>
			</g>
		</g>
	</g>
</g>
</svg>
